<?xml version="1.0" encoding="utf-8"?>
<!-- Generator: Adobe Illustrator 19.1.0, SVG Export Plug-In . SVG Version: 6.00 Build 0)  -->
<svg version="1.1" id="Layer_1" xmlns="http://www.w3.org/2000/svg" xmlns:xlink="http://www.w3.org/1999/xlink" x="0px" y="0px"
	 viewBox="0 0 633.6 93.8" style="enable-background:new 0 0 633.6 93.8;" xml:space="preserve">
<style type="text/css">
	.st0{fill:#59595B;}
	.st1{fill:#0075A8;}
	.st2{fill:#FFFFFF;}
</style>
<g>
	<path class="st2" d="M216.9,13.1h28.6c13.6,0,22.7,6.6,22.7,19.3c0,10.4-7.1,16.6-14,18.8c2.1,1.7,3.6,4.1,4.8,6.6
		c2.9,5.9,4.8,12.3,10.9,12.3c1.5,0,2.8-0.5,2.8-0.5l-1.3,12.2c0,0-3.7,0.9-6.9,0.9c-8.2,0-12.9-3.2-17.8-14.2
		c-2.1-4.9-4.9-13.6-8.7-13.6h-3.9v27.4h-17.2V13.1z M234.1,25.5v17h6.2c4.9,0,10.7-1.5,10.7-8.9c0-6.1-3.9-8.1-8.6-8.1H234.1z"/>
	<path class="st2" d="M291.4,13.1h17.4l23.4,69.3h-17.4l-4.3-13.1h-23.2l-4.2,13.1h-15L291.4,13.1z M291.4,56.5h14.9l-4.7-14.6
		c-1.6-4.9-2.4-11.9-2.4-11.9h-0.4c0,0-1,7.1-2.6,11.8L291.4,56.5z"/>
	<path class="st2" d="M332.9,13.1h18.4l18.2,34.4c1.5,3,3.6,8.2,5.2,12.3h0.4c-0.2-3.9-0.7-9.4-0.7-13.5V13.1h14.1v69.3h-18
		l-18.9-34.3c-1.7-3.1-3.6-7.6-5-11.3h-0.4c0.3,3.9,0.8,8.5,0.8,12.3v33.3h-14.1V13.1z"/>
	<path class="st2" d="M392.1,47.3c0-25.1,12.4-35.4,31.6-35.4c20.2,0,28.3,11.1,26.1,26.1l-16,1.4c1.7-11-2.6-15.4-10.4-15.4
		c-7.5,0-13.6,5.5-13.6,23.4c0,18.9,6.6,23.7,14.1,23.7c7.1,0,12.8-4.4,11.6-13.5l15,1.5c1.1,14.1-9,24.4-27.5,24.4
		C404.3,83.6,392.1,72.5,392.1,47.3"/>
	<polygon class="st2" points="454.1,13.1 471.2,13.1 471.2,39.3 492.3,39.3 492.3,13.1 509.4,13.1 509.4,82.4 492.3,82.4 492.3,53 
		471.2,53 471.2,82.4 454.1,82.4 	"/>
	<polygon class="st2" points="516.3,13.1 562.2,13.1 562.2,25.8 533.4,25.8 533.4,40.7 557.6,40.7 557.6,53.4 533.4,53.4 
		533.4,69.7 563.2,69.7 563.2,82.4 516.3,82.4 	"/>
	<path class="st2" d="M566.5,13.1h28.6c13.6,0,22.7,6.6,22.7,19.3c0,10.4-7.1,16.6-14,18.8c2.1,1.7,3.6,4.1,4.8,6.6
		c2.9,5.9,4.8,12.3,10.9,12.3c1.5,0,2.8-0.5,2.8-0.5l-1.3,12.2c0,0-3.7,0.9-6.9,0.9c-8.2,0-12.9-3.2-17.8-14.2
		c-2.1-4.9-4.9-13.6-8.7-13.6h-3.9v27.4h-17.2V13.1z M583.7,25.5v17h6.2c4.9,0,10.7-1.5,10.7-8.9c0-6.1-3.9-8.1-8.6-8.1H583.7z"/>
</g>
<g>
	<path class="st2" d="M199.9,21.4l-2.2-13c-0.7-4.2-2.3-7.6-3.6-7.6c-1.3,0-2.4,3.5-2.4,7.7v3.4c0,4.2-3.5,7.7-7.7,7.7h-3.4
		c-0.2,0-0.5,0-0.7,0V29c0.2,0,0.5,0,0.7,0h12.8C197.7,29,200.6,25.6,199.9,21.4"/>
	<path class="st2" d="M169.2,10.4h-20.8c-0.2,0-0.3,0-0.5,0h-21.3c-0.3,0-0.5,0-0.7,0.1v-2c0-4.2-1.1-7.7-2.4-7.7
		c-1.3,0-2.9,3.4-3.6,7.6l-2.2,13c-0.7,4.2,2.2,7.6,6.4,7.6H137c1.3,0,2.6-0.2,3.6-0.6c-0.4,2.2-2.3,3.8-4.6,3.8h-18
		c-2.9,0-5.1-2.6-4.6-5.5l1.8-10.9c0.5-2.9-1.7-5.5-4.6-5.5H21.3c-1.9,0-3.5,1.1-4.3,2.8L0.2,38.8c-0.3,0.4-0.3,1,0.1,1.4L3.5,44
		c0.4,0.5,1.1,0.6,1.6,0.2l11.4-9v54.8c0,2.6,2.1,4.7,4.7,4.7h25.4c2.6,0,4.7-2.1,4.7-4.7v-19c0-2.6,2.1-4.7,4.7-4.7h63.3
		c2.6,0,4.7,2.1,4.7,4.7v19c0,2.6,2.1,4.7,4.7,4.7h25.4c2.6,0,4.7-2.1,4.7-4.7V69.5h-13.5c-4.2,0-7.7-3.5-7.7-7.7V48.6
		c0-2.5,1.2-4.7,3.1-6.1v15.7c0,4.2,3.5,7.7,7.7,7.7h20.8c4.2,0,7.7-3.5,7.7-7.7v-40C176.9,13.9,173.4,10.4,169.2,10.4"/>
</g>
</svg>
