<?xml version="1.0" encoding="utf-8"?>
<!-- Generator: Adobe Illustrator 19.2.1, SVG Export Plug-In . SVG Version: 6.00 Build 0)  -->
<svg version="1.1" id="Layer_1" xmlns="http://www.w3.org/2000/svg" xmlns:xlink="http://www.w3.org/1999/xlink" x="0px" y="0px"
	 viewBox="0 0 754.6 93.8" style="enable-background:new 0 0 754.6 93.8;" xml:space="preserve">
<style type="text/css">
	.st0{fill:#B3B3B3;}
	.st1{fill:#59595B;}
	.st2{fill:#0075A8;}
	.st3{fill:#FFFFFF;}
</style>
<g>
	<g>
		<path class="st3" d="M221,12.2h28.6c13.6,0,22.7,6.6,22.7,19.3c0,10.4-7.1,16.6-14,18.8c2.1,1.7,3.6,4.1,4.8,6.6
			c2.9,5.9,4.8,12.3,10.9,12.3c1.5,0,2.8-0.5,2.8-0.5L275.4,81c0,0-3.7,0.9-6.9,0.9c-8.2,0-12.9-3.2-17.8-14.2
			c-2.1-4.9-4.9-13.6-8.7-13.6h-3.9v27.4H221V12.2z M238.1,24.7v17h6.2c4.9,0,10.7-1.5,10.7-8.9c0-6.1-3.9-8.1-8.6-8.1H238.1z"/>
		<path class="st3" d="M295.4,12.2h17.4l23.4,69.3h-17.4l-4.3-13.1h-23.2l-4.2,13.1h-15L295.4,12.2z M295.4,55.7h14.9l-4.7-14.6
			c-1.6-4.9-2.4-11.9-2.4-11.9h-0.4c0,0-1,7.1-2.6,11.8L295.4,55.7z"/>
		<path class="st3" d="M336.9,12.2h18.4l18.2,34.4c1.5,3,3.6,8.2,5.2,12.3h0.4c-0.2-3.9-0.7-9.4-0.7-13.5V12.2h14.1v69.3h-18
			l-18.9-34.3c-1.7-3.1-3.6-7.6-5-11.3h-0.4c0.3,3.9,0.8,8.5,0.8,12.3v33.3h-14.1V12.2z"/>
		<path class="st3" d="M396.2,46.5c0-25.1,12.4-35.4,31.6-35.4c20.2,0,28.3,11.1,26.1,26.1l-16,1.4c1.7-11-2.6-15.4-10.4-15.4
			c-7.5,0-13.6,5.5-13.6,23.4c0,18.9,6.6,23.7,14.1,23.7c7.1,0,12.8-4.4,11.6-13.5l15,1.5c1.1,14.1-9,24.4-27.5,24.4
			C408.3,82.8,396.2,71.7,396.2,46.5"/>
		<polygon class="st3" points="458.1,12.2 475.2,12.2 475.2,38.4 496.3,38.4 496.3,12.2 513.4,12.2 513.4,81.6 496.3,81.6 
			496.3,52.2 475.2,52.2 475.2,81.6 458.1,81.6 		"/>
		<polygon class="st3" points="520.3,12.2 566.2,12.2 566.2,25 537.5,25 537.5,39.9 561.6,39.9 561.6,52.6 537.5,52.6 537.5,68.8 
			567.3,68.8 567.3,81.6 520.3,81.6 		"/>
		<path class="st3" d="M570.5,12.2h28.6c13.6,0,22.7,6.6,22.7,19.3c0,10.4-7.1,16.6-14,18.8c2.1,1.7,3.6,4.1,4.8,6.6
			c2.9,5.9,4.8,12.3,10.9,12.3c1.5,0,2.8-0.5,2.8-0.5L625,81c0,0-3.7,0.9-6.9,0.9c-8.2,0-12.9-3.2-17.8-14.2
			c-2.1-4.9-4.9-13.6-8.7-13.6h-3.9v27.4h-17.2V12.2z M587.7,24.7v17h6.2c4.9,0,10.7-1.5,10.7-8.9c0-6.1-3.9-8.1-8.6-8.1H587.7z"/>
	</g>
	<g>
		<path class="st3" d="M203.9,20.6l-2.2-13c-0.7-4.2-2.3-7.6-3.6-7.6c-1.3,0-2.4,3.5-2.4,7.7v3.4c0,4.2-3.5,7.7-7.7,7.7h-3.4
			c-0.2,0-0.5,0-0.7,0v9.4c0.2,0,0.5,0,0.7,0h12.8C201.7,28.2,204.6,24.8,203.9,20.6"/>
		<path class="st3" d="M173.2,9.6h-20.8c-0.2,0-0.3,0-0.5,0h-21.3c-0.3,0-0.5,0-0.7,0.1v-2c0-4.2-1.1-7.7-2.4-7.7s-2.9,3.4-3.6,7.6
			l-2.2,13c-0.7,4.2,2.2,7.6,6.4,7.6H141c1.3,0,2.6-0.2,3.6-0.6c-0.4,2.2-2.3,3.8-4.6,3.8h-18c-2.9,0-5.1-2.6-4.6-5.5l1.8-10.9
			c0.5-2.9-1.7-5.5-4.6-5.5H25.3c-1.9,0-3.5,1.1-4.3,2.8L4.2,38c-0.3,0.4-0.3,1,0.1,1.4l3.3,3.9c0.4,0.5,1.1,0.6,1.6,0.2l11.4-9
			v54.8c0,2.6,2.1,4.7,4.7,4.7h25.4c2.6,0,4.7-2.1,4.7-4.7v-19c0-2.6,2.1-4.7,4.7-4.7h63.3c2.6,0,4.7,2.1,4.7,4.7v19
			c0,2.6,2.1,4.7,4.7,4.7h25.4c2.6,0,4.7-2.1,4.7-4.7V68.6h-13.5c-4.2,0-7.7-3.5-7.7-7.7V47.8c0-2.5,1.2-4.7,3.1-6.1v15.7
			c0,4.2,3.5,7.7,7.7,7.7h20.8c4.2,0,7.7-3.5,7.7-7.7v-40C180.9,13.1,177.5,9.6,173.2,9.6"/>
	</g>
	<g>
		<path class="st3" d="M696.1,46.9c0,11.1-2.8,19.8-8.3,26.3c-5.5,6.4-13.2,9.7-22.9,9.7c-9.7,0-17.3-3.2-22.8-9.7
			s-8.3-15.2-8.3-26.4c0-11.1,2.8-19.8,8.4-26.2S655.3,11,665,11c9.7,0,17.3,3.2,22.8,9.6C693.3,27,696.1,35.8,696.1,46.9z
			 M639,46.9c0,10,2.2,17.7,6.7,23.2c4.5,5.5,10.8,8.2,19.2,8.2c8.4,0,14.8-2.7,19.2-8.1c4.4-5.4,6.7-13.1,6.7-23.2
			c0-10-2.2-17.8-6.7-23.1c-4.4-5.4-10.8-8-19.2-8c-8.3,0-14.7,2.7-19.2,8.1C641.3,29.3,639,36.9,639,46.9z"/>
		<path class="st3" d="M750.6,63.9c0,5.8-2.1,10.4-6.4,13.8c-4.3,3.4-10,5.1-17.1,5.1c-8.5,0-15.1-0.9-19.6-2.8v-4.9
			c5,2.1,11.4,3.2,19.2,3.2c5.7,0,10.3-1.3,13.6-3.9c3.4-2.6,5-6.1,5-10.3c0-2.6-0.6-4.8-1.7-6.6c-1.1-1.7-2.9-3.3-5.4-4.7
			c-2.5-1.4-6.2-3-11.1-4.6c-7.1-2.4-12-5.1-14.8-7.9s-4.1-6.6-4.1-11.4c0-5.2,2-9.5,6.1-12.8c4.1-3.3,9.3-4.9,15.8-4.9
			c6.6,0,12.7,1.2,18.5,3.7L747,19c-5.8-2.4-11.3-3.6-16.6-3.6c-5.2,0-9.3,1.2-12.3,3.6s-4.6,5.6-4.6,9.7c0,2.6,0.5,4.7,1.4,6.3
			c0.9,1.7,2.5,3.1,4.6,4.5c2.1,1.3,5.8,2.9,11,4.7c5.4,1.9,9.5,3.7,12.3,5.5c2.7,1.8,4.7,3.8,6,6C750,58,750.6,60.7,750.6,63.9z"/>
	</g>
</g>
</svg>
